<?xml version="1.0" ?><!DOCTYPE svg  PUBLIC '-//W3C//DTD SVG 1.1//EN'  'http://www.w3.org/Graphics/SVG/1.1/DTD/svg11.dtd'><svg height="100%" style="fill-rule:evenodd;clip-rule:evenodd;stroke-linejoin:round;stroke-miterlimit:2;" version="1.1" viewBox="0 0 32 32" width="100%" xml:space="preserve" xmlns="http://www.w3.org/2000/svg" xmlns:serif="http://www.serif.com/" xmlns:xlink="http://www.w3.org/1999/xlink"><path d="M28.002,7c0,-0.796 -0.316,-1.559 -0.878,-2.121c-0.563,-0.563 -1.326,-0.879 -2.122,-0.879c-4.184,0 -13.818,0 -18.002,0c-0.796,-0 -1.559,0.316 -2.121,0.879c-0.563,0.562 -0.879,1.325 -0.879,2.121c-0,4.184 -0,13.816 -0,18c-0,0.796 0.316,1.559 0.879,2.121c0.562,0.563 1.325,0.879 2.121,0.879c4.184,0 13.818,0 18.002,0c0.796,0 1.559,-0.316 2.122,-0.879c0.562,-0.562 0.878,-1.325 0.878,-2.121l0,-18Zm-19.003,14.998c0.553,0 1.001,0.449 1.001,1.001c0,0.553 -0.448,1.001 -1.001,1.001c-0.552,-0 -1.001,-0.448 -1.001,-1.001c0,-0.552 0.449,-1.001 1.001,-1.001Zm4,0c0.553,0 1.001,0.449 1.001,1.001c0,0.553 -0.448,1.001 -1.001,1.001c-0.552,-0 -1.001,-0.448 -1.001,-1.001c0,-0.552 0.449,-1.001 1.001,-1.001Zm4,0c0.553,0 1.001,0.449 1.001,1.001c0,0.553 -0.448,1.001 -1.001,1.001c-0.552,-0 -1.001,-0.448 -1.001,-1.001c0,-0.552 0.449,-1.001 1.001,-1.001Zm5.001,-5.061l-2.348,2.348c-0.39,0.39 -0.39,1.024 0,1.414c0.391,0.39 1.024,0.39 1.415,-0l2.639,-2.64c0.194,-0.194 0.292,-0.447 0.293,-0.701c0.001,-0.014 0.001,-0.028 0.001,-0.042l0,-8.316c0,-0.552 -0.448,-1 -1,-1c-0.552,-0 -1,0.448 -1,1l0,7.937Zm-7.994,-8.937c-3.311,0 -6,2.689 -6,6c0,3.311 2.689,6 6,6c3.312,0 6,-2.689 6,-6c0,-3.311 -2.688,-6 -6,-6Zm0,3.994c-1.104,0 -2.001,0.897 -2.001,2.001c0,1.104 0.897,2.001 2.001,2.001c1.104,-0 2.001,-0.897 2.001,-2.001c-0,-1.104 -0.897,-2.001 -2.001,-2.001Z"/></svg>